<?xml version="1.0" encoding="UTF-8" standalone="no"?>
<!-- Created with Inkscape (http://www.inkscape.org/) -->

<svg
   version="1.1"
   id="svg2"
   xml:space="preserve"
   width="362.24847"
   height="282.14624"
   viewBox="0 0 362.24847 282.14624"
   sodipodi:docname="hsf_logo_white.svg"
   inkscape:version="1.1.1 (3bf5ae0d25, 2021-09-20)"
   inkscape:export-filename="/home/cp264607/Sync/Main/hsf_logo_v0.png"
   inkscape:export-xdpi="300.0997"
   inkscape:export-ydpi="300.0997"
   xmlns:inkscape="http://www.inkscape.org/namespaces/inkscape"
   xmlns:sodipodi="http://sodipodi.sourceforge.net/DTD/sodipodi-0.dtd"
   xmlns="http://www.w3.org/2000/svg"
   xmlns:svg="http://www.w3.org/2000/svg"><defs
     id="defs6"><rect
       x="1.2574305"
       y="287.48043"
       width="997.59748"
       height="292.42112"
       id="rect3557" /></defs><sodipodi:namedview
     id="namedview4"
     pagecolor="#ffffff"
     bordercolor="#666666"
     borderopacity="1.0"
     inkscape:pageshadow="2"
     inkscape:pageopacity="0.0"
     inkscape:pagecheckerboard="0"
     showgrid="true"
     inkscape:zoom="1.5380646"
     inkscape:cx="174.89512"
     inkscape:cy="226.90854"
     inkscape:window-width="1920"
     inkscape:window-height="1080"
     inkscape:window-x="0"
     inkscape:window-y="0"
     inkscape:window-maximized="1"
     inkscape:current-layer="g8"><inkscape:grid
       type="xygrid"
       id="grid1044" /></sodipodi:namedview><g
     id="g8"
     inkscape:groupmode="layer"
     inkscape:label="ink_ext_XXXXXX"
     transform="matrix(1.3333333,0,0,-1.3333333,-2.117223,284.83252)"><g
       id="g10"
       transform="scale(0.1)"
       style="stroke-width:22.5;stroke-miterlimit:4;stroke-dasharray:none" /><path
       style="fill:#ffffff;fill-opacity:1;fill-rule:nonzero;stroke:#ffffff;stroke-width:1.68933;stroke-miterlimit:4;stroke-dasharray:none;stroke-opacity:0;paint-order:normal"
       d="m 104.86872,291.0021 c -1.31614,-0.13734 -2.39298,-0.31992 -2.39298,-0.40574 0,-0.92828 5.32749,-12.7933 8.40758,-18.72479 20.18435,-38.87002 57.77508,-68.34731 100.46176,-78.77847 15.24755,-3.72598 32.12947,-5.26649 46.49685,-4.24295 36.57295,2.60549 68.82733,16.31518 95.80637,40.72239 5.92899,5.36381 10.29064,9.98805 9.84304,10.43565 -0.12886,0.12887 -1.58421,-0.75795 -3.23409,-1.97071 -34.70592,-25.51095 -81.52176,-29.57146 -121.40578,-10.52996 -14.03143,6.69891 -22.69568,13.14546 -36.1522,26.89868 -15.57882,15.92232 -29.41785,24.8676 -48.10223,31.09237 -13.10088,4.3646 -19.45029,5.39637 -34.38511,5.5875 -7.12263,0.0912 -14.02707,0.0534 -15.34321,-0.084 z"
       id="path1883"
       transform="matrix(0.75000002,0,0,-0.75000002,0,221.00001)" /><path
       style="fill:#ffffff;fill-opacity:1;fill-rule:nonzero;stroke:#00ace0;stroke-width:1.267;stroke-miterlimit:4;stroke-dasharray:none;stroke-opacity:0;paint-order:normal"
       d="M 67.355371,4.9837445 C 36.642667,13.029689 13.212172,36.254696 5.0833244,66.709651 -1.0218323,89.582795 2.7363223,114.1934 15.447141,134.57798 l 2.500302,4.00979 0.100409,-2.74353 C 18.88252,113.0374 26.573418,92.471193 40.477779,75.864435 48.795077,65.930619 59.6682,57.466755 69.216159,53.49388 c 10.01027,-4.165237 22.783657,-5.036174 33.601881,-2.291091 2.31727,0.587996 4.23847,1.069087 4.26933,1.069087 0.0309,0 -1.83783,-1.851889 -4.15263,-4.115311 C 90.990487,36.477434 81.084244,21.612122 75.369711,6.7924703 73.964774,3.1490065 74.176484,3.1967881 67.355371,4.9837445 Z"
       id="path1922" /><path
       style="fill:#ffffff;fill-opacity:1;fill-rule:nonzero;stroke:#383961;stroke-width:1.68916;stroke-miterlimit:4;stroke-dasharray:none;stroke-opacity:0;paint-order:normal"
       d="M 107.82475,224.04042 C 89.406175,220.77571 73.102207,210.08089 62.681859,194.42831 49.352904,174.40665 47.467342,149.33452 57.668388,127.76465 67.248074,107.50864 85.710173,93.385324 108.10628,89.180195 c 5.41741,-1.017182 17.92509,-0.880224 23.76638,0.26024 27.99951,5.466682 49.39754,26.853095 54.85779,54.828025 1.14957,5.88968 1.28775,18.42014 0.2616,23.72241 -5.66135,29.25284 -27.48736,51.10218 -56.01756,56.07744 -6.12621,1.06832 -17.03941,1.05517 -23.14974,-0.0279 z"
       id="path1961"
       transform="matrix(0.75000002,0,0,-0.75000002,0,221.00001)" /><path
       style="fill:#ffffff;fill-opacity:1;fill-rule:nonzero;stroke:#00bcf5;stroke-width:1.68916;stroke-miterlimit:4;stroke-dasharray:none;stroke-opacity:0;paint-order:normal"
       d="M 50.839281,183.44286 C 39.701414,168.11491 31.862802,148.71928 29.01665,129.4456 c -1.03796,-7.0289 -1.728861,-20.67998 -1.191589,-23.54388 0.329853,-1.75827 1.73632,-3.46974 8.105347,-9.86308 10.981019,-11.022928 19.923258,-17.4775 32.480596,-23.444724 6.007217,-2.854619 12.668704,-5.521803 12.668704,-5.072406 0,0.121444 -2.014152,2.896189 -4.475893,6.1661 -16.475336,21.884056 -26.447909,48.54894 -28.690978,76.71455 -0.895555,11.24525 0.63873,22.39201 4.423871,32.13996 0.925184,2.38265 1.592729,4.42151 1.483433,4.5308 -0.109297,0.1093 -1.450683,-1.52423 -2.98086,-3.63006 z"
       id="path2000"
       transform="matrix(0.75000002,0,0,-0.75000002,0,221.00001)" /><path
       style="fill:#ffffff;fill-opacity:1;fill-rule:nonzero;stroke:#0ac6ff;stroke-width:1.68916;stroke-miterlimit:4;stroke-dasharray:none;stroke-opacity:0;paint-order:normal"
       d="m 57.994513,117.81581 c 0,-1.73712 4.998814,-13.87787 8.757814,-21.270322 5.630671,-11.073287 16.887892,-27.327032 21.3663,-30.849746 2.121799,-1.669008 12.718923,-3.482101 23.822663,-4.075891 C 130.211,60.64285 140.58076,57.44149 153.46636,48.8002 165.1798,40.944979 174.73478,28.746947 180.00472,14.920918 l 1.82421,-4.785955 0.0169,6.475116 c 0.0756,28.995118 -18.66104,55.120063 -46.26535,64.508891 -5.64703,1.920682 -11.12294,2.960096 -19.12415,3.630062 -11.93044,0.998975 -20.609075,3.277101 -29.46455,7.734396 -9.22705,4.644319 -18.599793,12.517662 -24.889694,20.907962 -4.215626,5.62337 -4.107563,5.50697 -4.107563,4.42442 z"
       id="path2039"
       transform="matrix(0.75000002,0,0,-0.75000002,0,221.00001)" /></g></svg>
